<svg width="6" height="6" viewBox="0 0 6 6" fill="none" xmlns="http://www.w3.org/2000/svg">
<path d="M0.073308 0.427271C0.0500665 0.404029 0.0316304 0.376438 0.0190522 0.346071C0.00647395 0.315705 2.44889e-10 0.283158 0 0.250289C-2.44889e-10 0.217421 0.00647395 0.184874 0.0190522 0.154508C0.0316304 0.124141 0.0500665 0.0965496 0.073308 0.073308C0.0965496 0.0500665 0.124141 0.0316304 0.154508 0.0190522C0.184874 0.00647395 0.217421 -2.44889e-10 0.250289 0C0.283158 2.44889e-10 0.315705 0.00647395 0.346071 0.0190522C0.376438 0.0316304 0.404029 0.0500665 0.427271 0.073308L3 2.64654L5.57273 0.073308C5.59597 0.0500665 5.62356 0.0316304 5.65393 0.0190522C5.6843 0.00647395 5.71684 0 5.74971 0C5.78258 0 5.81513 0.00647395 5.84549 0.0190522C5.87586 0.0316304 5.90345 0.0500665 5.92669 0.073308C5.94993 0.0965496 5.96837 0.124141 5.98095 0.154508C5.99353 0.184874 6 0.217421 6 0.250289C6 0.283158 5.99353 0.315705 5.98095 0.346071C5.96837 0.376438 5.94993 0.404029 5.92669 0.427271L3.35346 3L5.92669 5.57273C5.94993 5.59597 5.96837 5.62356 5.98095 5.65393C5.99353 5.6843 6 5.71684 6 5.74971C6 5.78258 5.99353 5.81513 5.98095 5.84549C5.96837 5.87586 5.94993 5.90345 5.92669 5.92669C5.90345 5.94993 5.87586 5.96837 5.84549 5.98095C5.81513 5.99353 5.78258 6 5.74971 6C5.71684 6 5.6843 5.99353 5.65393 5.98095C5.62356 5.96837 5.59597 5.94993 5.57273 5.92669L3 3.35346L0.427271 5.92669C0.404029 5.94993 0.376438 5.96837 0.346071 5.98095C0.315705 5.99353 0.283158 6 0.250289 6C0.217421 6 0.184874 5.99353 0.154508 5.98095C0.124141 5.96837 0.0965496 5.94993 0.073308 5.92669C0.0500665 5.90345 0.0316304 5.87586 0.0190522 5.84549C0.00647395 5.81513 0 5.78258 0 5.74971C0 5.71684 0.00647395 5.6843 0.0190522 5.65393C0.0316304 5.62356 0.0500665 5.59597 0.073308 5.57273L2.64654 3L0.073308 0.427271Z" fill="black"/>
</svg>
