<svg width="25" height="25" viewBox="0 0 25 25" fill="none" xmlns="http://www.w3.org/2000/svg">
<path d="M12.5 7.8125C12.8078 7.8125 13.1126 7.75188 13.3969 7.63409C13.6813 7.51631 13.9396 7.34367 14.1573 7.12603C14.3749 6.90839 14.5476 6.65002 14.6653 6.36566C14.7831 6.08131 14.8438 5.77654 14.8438 5.46875C14.8438 5.16096 14.7831 4.85619 14.6653 4.57184C14.5476 4.28748 14.3749 4.02911 14.1573 3.81147C13.9396 3.59383 13.6813 3.42119 13.3969 3.30341C13.1126 3.18562 12.8078 3.125 12.5 3.125C11.8784 3.125 11.2823 3.37193 10.8427 3.81147C10.4032 4.25101 10.1562 4.84715 10.1562 5.46875C10.1562 6.09035 10.4032 6.68649 10.8427 7.12603C11.2823 7.56557 11.8784 7.8125 12.5 7.8125ZM18.75 12.5C19.3716 12.5 19.9677 12.2531 20.4073 11.8135C20.8468 11.374 21.0938 10.7779 21.0938 10.1562C21.0938 9.53465 20.8468 8.93851 20.4073 8.49897C19.9677 8.05943 19.3716 7.8125 18.75 7.8125C18.1284 7.8125 17.5323 8.05943 17.0927 8.49897C16.6532 8.93851 16.4062 9.53465 16.4062 10.1562C16.4062 10.7779 16.6532 11.374 17.0927 11.8135C17.5323 12.2531 18.1284 12.5 18.75 12.5ZM8.59375 10.9375C8.59375 11.5591 8.34682 12.1552 7.90728 12.5948C7.46774 13.0343 6.8716 13.2812 6.25 13.2812C5.6284 13.2812 5.03226 13.0343 4.59272 12.5948C4.15318 12.1552 3.90625 11.5591 3.90625 10.9375C3.90625 10.3159 4.15318 9.71976 4.59272 9.28022C5.03226 8.84068 5.6284 8.59375 6.25 8.59375C6.8716 8.59375 7.46774 8.84068 7.90728 9.28022C8.34682 9.71976 8.59375 10.3159 8.59375 10.9375ZM9.375 20.3125C9.9966 20.3125 10.5927 20.0656 11.0323 19.626C11.4718 19.1865 11.7188 18.5904 11.7188 17.9688C11.7188 17.3471 11.4718 16.751 11.0323 16.3115C10.5927 15.8719 9.9966 15.625 9.375 15.625C8.7534 15.625 8.15726 15.8719 7.71772 16.3115C7.27818 16.751 7.03125 17.3471 7.03125 17.9688C7.03125 18.5904 7.27818 19.1865 7.71772 19.626C8.15726 20.0656 8.7534 20.3125 9.375 20.3125Z" fill="black"/>
<path d="M25 12.5C25 17.4219 22.0844 16.5391 19.4266 15.7344C17.8438 15.2547 16.3516 14.8016 15.625 15.625C14.6828 16.6922 14.8828 18.4672 15.0766 20.1875C15.3531 22.6484 15.6188 25 12.5 25C10.0277 25 7.61099 24.2669 5.55538 22.8934C3.49976 21.5199 1.89761 19.5676 0.951511 17.2835C0.00541601 14.9995 -0.242126 12.4861 0.24019 10.0614C0.722505 7.63661 1.91301 5.40933 3.66117 3.66117C5.40933 1.91301 7.63661 0.722505 10.0614 0.24019C12.4861 -0.242126 14.9995 0.00541601 17.2835 0.951511C19.5676 1.89761 21.5199 3.49976 22.8934 5.55538C24.2669 7.61099 25 10.0277 25 12.5V12.5ZM12.5 23.4375C13.4547 23.4375 13.5219 23.1703 13.5234 23.1625C13.6453 22.9344 13.7172 22.4375 13.6328 21.4141C13.6109 21.1516 13.575 20.8359 13.5375 20.4906C13.4563 19.7656 13.3625 18.9203 13.3531 18.2063C13.3375 17.1016 13.4828 15.6906 14.4531 14.5906C15.0297 13.9391 15.7734 13.6875 16.4406 13.625C17.0719 13.5656 17.7094 13.6656 18.2531 13.7875C18.7891 13.9078 19.35 14.0781 19.8547 14.2313L19.8984 14.2438C20.4391 14.4078 20.9266 14.5547 21.3875 14.6594C22.4078 14.8906 22.8 14.7891 22.9359 14.6969C22.9953 14.6563 23.4375 14.3141 23.4375 12.5C23.4375 10.3368 22.796 8.22212 21.5942 6.42346C20.3924 4.62479 18.6842 3.22291 16.6856 2.39507C14.687 1.56724 12.4879 1.35064 10.3662 1.77267C8.24454 2.19469 6.29566 3.23639 4.76602 4.76602C3.23639 6.29566 2.19469 8.24454 1.77267 10.3662C1.35064 12.4879 1.56724 14.687 2.39507 16.6856C3.22291 18.6842 4.62479 20.3924 6.42346 21.5942C8.22212 22.796 10.3368 23.4375 12.5 23.4375V23.4375Z" fill="black"/>
</svg>
