<svg width="30" height="30" viewBox="0 0 30 30" fill="none" xmlns="http://www.w3.org/2000/svg">
<circle cx="15" cy="15" r="15" fill="#6A6A6A"/>
<path d="M9.1344 10.7916C9.09179 10.749 9.05799 10.6984 9.03493 10.6428C9.01187 10.5871 9 10.5274 9 10.4672C9 10.4069 9.01187 10.3472 9.03493 10.2916C9.05799 10.2359 9.09179 10.1853 9.1344 10.1427C9.17701 10.1001 9.22759 10.0663 9.28326 10.0432C9.33894 10.0202 9.39861 10.0083 9.45886 10.0083C9.51912 10.0083 9.57879 10.0202 9.63446 10.0432C9.69014 10.0663 9.74072 10.1001 9.78333 10.1427L14.5 14.8603L19.2167 10.1427C19.2593 10.1001 19.3099 10.0663 19.3655 10.0432C19.4212 10.0202 19.4809 10.0083 19.5411 10.0083C19.6014 10.0083 19.6611 10.0202 19.7167 10.0432C19.7724 10.0663 19.823 10.1001 19.8656 10.1427C19.9082 10.1853 19.942 10.2359 19.9651 10.2916C19.9881 10.3472 20 10.4069 20 10.4672C20 10.5274 19.9881 10.5871 19.9651 10.6428C19.942 10.6984 19.9082 10.749 19.8656 10.7916L15.148 15.5083L19.8656 20.225C19.9082 20.2676 19.942 20.3182 19.9651 20.3738C19.9881 20.4295 20 20.4892 20 20.5494C20 20.6097 19.9881 20.6694 19.9651 20.725C19.942 20.7807 19.9082 20.8313 19.8656 20.8739C19.823 20.9165 19.7724 20.9503 19.7167 20.9734C19.6611 20.9964 19.6014 21.0083 19.5411 21.0083C19.4809 21.0083 19.4212 20.9964 19.3655 20.9734C19.3099 20.9503 19.2593 20.9165 19.2167 20.8739L14.5 16.1563L9.78333 20.8739C9.74072 20.9165 9.69014 20.9503 9.63446 20.9734C9.57879 20.9964 9.51912 21.0083 9.45886 21.0083C9.39861 21.0083 9.33894 20.9964 9.28326 20.9734C9.22759 20.9503 9.17701 20.9165 9.1344 20.8739C9.09179 20.8313 9.05799 20.7807 9.03493 20.725C9.01187 20.6694 9 20.6097 9 20.5494C9 20.4892 9.01187 20.4295 9.03493 20.3738C9.05799 20.3182 9.09179 20.2676 9.1344 20.225L13.852 15.5083L9.1344 10.7916Z" fill="white"/>
</svg>
