<svg width="30" height="30" viewBox="0 0 30 30" fill="none" xmlns="http://www.w3.org/2000/svg">
<circle cx="15" cy="15" r="15" fill="#6A6A6A"/>
<path d="M14.8784 9C15.0773 9 15.2681 9.07902 15.4087 9.21967C15.5494 9.36032 15.6284 9.55109 15.6284 9.75V14.25H20.1284C20.3273 14.25 20.5181 14.329 20.6587 14.4697C20.7994 14.6103 20.8784 14.8011 20.8784 15C20.8784 15.1989 20.7994 15.3897 20.6587 15.5303C20.5181 15.671 20.3273 15.75 20.1284 15.75H15.6284V20.25C15.6284 20.4489 15.5494 20.6397 15.4087 20.7803C15.2681 20.921 15.0773 21 14.8784 21C14.6795 21 14.4887 20.921 14.3481 20.7803C14.2074 20.6397 14.1284 20.4489 14.1284 20.25V15.75H9.62842C9.42951 15.75 9.23874 15.671 9.09809 15.5303C8.95744 15.3897 8.87842 15.1989 8.87842 15C8.87842 14.8011 8.95744 14.6103 9.09809 14.4697C9.23874 14.329 9.42951 14.25 9.62842 14.25H14.1284V9.75C14.1284 9.55109 14.2074 9.36032 14.3481 9.21967C14.4887 9.07902 14.6795 9 14.8784 9V9Z" fill="white"/>
</svg>
