<svg width="15" height="16" viewBox="0 0 15 16" fill="none" xmlns="http://www.w3.org/2000/svg">
<path fill-rule="evenodd" clip-rule="evenodd" d="M13.2883 2C13.2883 1.73478 13.1953 1.48043 13.0297 1.29289C12.8641 1.10536 12.6396 1 12.4054 1H1.81081C1.57665 1 1.35209 1.10536 1.18652 1.29289C1.02094 1.48043 0.927927 1.73478 0.927927 2V14C0.927927 14.2652 1.02094 14.5196 1.18652 14.7071C1.35209 14.8946 1.57665 15 1.81081 15H12.4054C12.6396 15 12.8641 14.8946 13.0297 14.7071C13.1953 14.5196 13.2883 14.2652 13.2883 14V2ZM0.0450439 2C0.0450439 1.46957 0.231079 0.960859 0.562225 0.585786C0.89337 0.210714 1.3425 0 1.81081 0L12.4054 0C12.8737 0 13.3228 0.210714 13.654 0.585786C13.9851 0.960859 14.1712 1.46957 14.1712 2V14C14.1712 14.5304 13.9851 15.0391 13.654 15.4142C13.3228 15.7893 12.8737 16 12.4054 16H1.81081C1.3425 16 0.89337 15.7893 0.562225 15.4142C0.231079 15.0391 0.0450439 14.5304 0.0450439 14V2ZM4.01802 7.5C3.90094 7.5 3.78866 7.55268 3.70587 7.64645C3.62308 7.74021 3.57658 7.86739 3.57658 8C3.57658 8.13261 3.62308 8.25979 3.70587 8.35355C3.78866 8.44732 3.90094 8.5 4.01802 8.5H9.13256L7.23701 10.646C7.19596 10.6925 7.16341 10.7477 7.14119 10.8084C7.11898 10.8692 7.10755 10.9343 7.10755 11C7.10755 11.0657 7.11898 11.1308 7.14119 11.1916C7.16341 11.2523 7.19596 11.3075 7.23701 11.354C7.27805 11.4005 7.32678 11.4374 7.3804 11.4625C7.43403 11.4877 7.4915 11.5006 7.54955 11.5006C7.60759 11.5006 7.66507 11.4877 7.71869 11.4625C7.77232 11.4374 7.82105 11.4005 7.86209 11.354L10.5107 8.354C10.5518 8.30755 10.5845 8.25238 10.6067 8.19163C10.629 8.13089 10.6404 8.06577 10.6404 8C10.6404 7.93423 10.629 7.86911 10.6067 7.80837C10.5845 7.74762 10.5518 7.69245 10.5107 7.646L7.86209 4.646C7.82105 4.59951 7.77232 4.56264 7.71869 4.53748C7.66507 4.51232 7.60759 4.49937 7.54955 4.49937C7.4915 4.49937 7.43403 4.51232 7.3804 4.53748C7.32678 4.56264 7.27805 4.59951 7.23701 4.646C7.19596 4.69249 7.16341 4.74768 7.14119 4.80842C7.11898 4.86916 7.10755 4.93426 7.10755 5C7.10755 5.06574 7.11898 5.13084 7.14119 5.19158C7.16341 5.25232 7.19596 5.30751 7.23701 5.354L9.13256 7.5H4.01802Z" fill="white"/>
</svg>
